# xmcd
#
# Track frame offsets: 
#        150
#        14805
#        31860
#        44527
#        55595
#        70295
#        87800
#        102537
#        118900
#
# Disc length: 1718 seconds
#
# Revision: 1
# Processed by: cddbd v1.5.2PL0 Copyright (c) Steve Scherf et al.
# Submitted via: ExactAudioCopy v0.95a5
#
DISCID=7a06b409
DTITLE=Various Artist - Christmas Rhythm and Blues
DYEAR=2000
DGENRE=Holiday
TTITLE0=Hark! The Harald Angels Sing
TTITLE1=Jingle Bells
TTITLE2=Jolly Old St. Nicholas
TTITLE3=Joy To The World
TTITLE4=O' Come All Ye Faithful
TTITLE5=O' Holy Night
TTITLE6=O' Little Town Of Bethlehem
TTITLE7=Silent Night
TTITLE8=We Wish You A Merry Christmas
EXTD=
EXTT0=
EXTT1=
EXTT2=
EXTT3=
EXTT4=
EXTT5=
EXTT6=
EXTT7=
EXTT8=
PLAYORDER=
